<svg width="91" height="50" viewBox="0 0 91 50" fill="none" xmlns="http://www.w3.org/2000/svg">
<g filter="url(#filter0_d)">
<path d="M40.24 3.19995C39.66 2.61995 38.92 2.31995 38.06 2.31995H12.95V5.30995C12.95 6.11995 13.25 6.80995 13.83 7.36995C14.43 7.96995 15.17 8.26995 16.04 8.26995H24.06V38.2999L26.99 38.3199C27.86 38.3199 28.59 38.0199 29.17 37.4399C29.77 36.8399 30.07 36.1399 30.07 35.3499V8.28995L41.1399 8.26995V5.49995C41.1399 4.70995 40.84 3.79995 40.24 3.19995Z" fill="#505071"/>
<path d="M56.1801 13.3199C55.3101 13.3199 54.5801 13.6099 54.0001 14.1999C53.4001 14.7999 53.1001 15.4999 53.1001 16.2899V28.2799C52.0401 31.2199 48.8101 32.6499 45.3401 32.6499C42.4701 32.6499 41.0801 31.3299 41.0801 28.6099V16.2799C41.0801 15.4899 40.7801 14.7899 40.1801 14.1899C39.6001 13.6099 38.8601 13.3099 38.0001 13.3099H35.0701V29.1399C35.0701 35.2299 38.2001 38.3199 44.6901 38.3199C47.8801 38.3199 51.3701 37.2199 53.0501 35.0399C52.9201 36.9699 52.7101 37.9599 51.6201 39.3999C50.4001 41.0099 48.0101 41.6299 45.5301 41.6299C43.1601 41.6299 40.8501 41.1599 38.3401 40.2199C37.9101 40.1199 37.5301 40.0699 37.2001 40.0699C35.8301 40.0699 35.0801 40.8199 35.0801 42.1699V44.6099L35.2601 44.7199C38.1401 46.4399 41.4901 47.3199 45.5401 47.3199C53.9701 47.3199 59.1201 42.7599 59.1201 33.7499V13.3199H56.1801Z" fill="#505071"/>
<path d="M83.8201 27.34C83.3701 26.02 82.8401 25.82 82.2101 25.22C82.4901 24.85 82.8501 24.14 83.3601 22.67L87.1501 13.32H83.7101C81.8301 13.32 80.6201 14.08 80.1201 15.58L77.5301 21.55C77.3401 22.05 76.7401 22.3 75.7701 22.3H70.1301L70.1401 5.25997C70.1401 4.46997 69.8801 3.80997 69.2801 3.21997C68.7001 2.63997 67.9601 2.33997 67.1001 2.33997H64.1201L64.1301 38.33H67.1101C67.9801 38.33 68.7201 38.03 69.3101 37.43C69.9001 36.86 70.1901 36.17 70.1901 35.36L70.1401 28.32H76.8001C77.7401 28.32 77.9901 28.75 78.1001 29.08L81.1901 36.2C81.6601 37.61 82.8501 38.33 84.7301 38.33H88.1501L83.8201 27.34Z" fill="#505071"/>
<path d="M16 19.5699C15.64 15.5199 12.26 12.3299 8.13 12.2799H1.59H1.38H0V13.6599V14.0699V20.6099H0.01C0.17 24.7999 3.54 28.1599 7.73 28.3099V28.3199H14.44H14.66H16.04V26.9399V19.5999C16.02 19.5899 16.01 19.5799 16 19.5699Z" fill="#00D9BA"/>
</g>
<defs>
<filter id="filter0_d" x="-2" y="0.319946" width="92.1501" height="49" filterUnits="userSpaceOnUse" color-interpolation-filters="sRGB">
<feFlood flood-opacity="0" result="BackgroundImageFix"/>
<feColorMatrix in="SourceAlpha" type="matrix" values="0 0 0 0 0 0 0 0 0 0 0 0 0 0 0 0 0 0 127 0"/>
<feOffset/>
<feGaussianBlur stdDeviation="1"/>
<feColorMatrix type="matrix" values="0 0 0 0 0 0 0 0 0 0 0 0 0 0 0 0 0 0 0.25 0"/>
<feBlend mode="normal" in2="BackgroundImageFix" result="effect1_dropShadow"/>
<feBlend mode="normal" in="SourceGraphic" in2="effect1_dropShadow" result="shape"/>
</filter>
</defs>
</svg>
